<?xml version="1.0" encoding="UTF-8" standalone="no"?>
<svg width="60px" height="125px" viewBox="0 0 60 125" version="1.1" xmlns="http://www.w3.org/2000/svg" xmlns:xlink="http://www.w3.org/1999/xlink" xmlns:sketch="http://www.bohemiancoding.com/sketch/ns">
    <!-- Generator: Sketch 3.4.3 (16618) - http://www.bohemiancoding.com/sketch -->
    <title>Illo</title>
    <desc>Created with Sketch.</desc>
    <defs></defs>
    <g id="Website" stroke="none" stroke-width="1" fill="none" fill-rule="evenodd" sketch:type="MSPage">
        <g id="home" sketch:type="MSArtboardGroup" transform="translate(-432.000000, -769.000000)">
            <g id="Illo" sketch:type="MSLayerGroup" transform="translate(432.000000, 769.000000)">
                <circle id="Oval-5" fill="#B3C3D4" sketch:type="MSShapeGroup" transform="translate(29.500000, 100.500000) scale(-1, 1) translate(-29.500000, -100.500000) " cx="29.5" cy="100.5" r="24.5"></circle>
                <text id="API" sketch:type="MSTextLayer" font-family="Arial Rounded MT Bold" font-size="15" font-weight="normal" sketch:alignment="middle" fill="#FFFFFF">
                    <tspan x="17.2558594" y="106">API</tspan>
                </text>
                <circle id="Oval-5" fill="#765FA1" sketch:type="MSShapeGroup" cx="30" cy="30" r="30"></circle>
                <g id="Group" transform="translate(30.000000, 31.000000) rotate(-45.000000) translate(-30.000000, -31.000000) translate(15.000000, 16.000000)" fill="#FFFFFF" sketch:type="MSShapeGroup">
                    <path d="M0.758637968,29.582765 L9.66339985,25.6239752 L4.53231593,20.4990363 L0.758637968,29.582765 Z" id="Shape"></path>
                    <path d="M22.256036,18.3036036 C28.0783784,12.0176577 31.7787387,3.64279279 29.0365766,0.90045045 C26.3088288,-1.82711712 18.1922523,1.98135135 11.908018,7.76171171 C11.7836937,7.87621622 11.5386486,8.09306306 11.1002703,8.00153153 L9.14234234,7.53531532 C8.59873874,7.40603604 7.83063063,7.62333333 7.4354955,8.01846847 L0.251261261,15.2026126 C-0.143873874,15.5978378 -0.0154954955,15.9921622 0.536576577,16.0788288 L5.7327027,16.8954054 C6.28477477,16.9822523 13.0202703,23.7176577 13.1071171,24.2698198 L13.9236036,29.4658559 C14.0103604,30.0181081 14.4046847,30.1464865 14.7998198,29.7512613 L21.9841441,22.5669369 C22.3791892,22.1718018 22.5965766,21.4038739 22.4671171,20.8602703 L22.0197297,18.9811712 C21.9001802,18.6007207 22.1506306,18.4173874 22.256036,18.3036036 Z M20.4112613,9.69963964 C19.1944144,8.48279279 19.1944144,6.51009009 20.4112613,5.29342342 C21.628018,4.07657658 23.6007207,4.07657658 24.8176577,5.29342342 C26.0343243,6.51 26.0343243,8.48279279 24.8176577,9.69954955 C23.6007207,10.9163964 21.6279279,10.9163964 20.4112613,9.69963964 L20.4112613,9.69963964 Z" id="Shape"></path>
                </g>
                <circle id="Oval-5" fill="#B3C3D4" sketch:type="MSShapeGroup" transform="translate(30.000000, 68.000000) scale(-1, 1) translate(-30.000000, -68.000000) " cx="30" cy="68" r="4"></circle>
            </g>
        </g>
    </g>
</svg>