<?xml version="1.0" encoding="UTF-8" standalone="no"?>
<svg width="160px" height="125px" viewBox="0 0 160 125" version="1.1" xmlns="http://www.w3.org/2000/svg" xmlns:xlink="http://www.w3.org/1999/xlink" xmlns:sketch="http://www.bohemiancoding.com/sketch/ns">
    <!-- Generator: Sketch 3.4.3 (16618) - http://www.bohemiancoding.com/sketch -->
    <title>Icon</title>
    <desc>Created with Sketch.</desc>
    <defs></defs>
    <g id="Website" stroke="none" stroke-width="1" fill="none" fill-rule="evenodd" sketch:type="MSPage">
        <g id="Icon" sketch:type="MSArtboardGroup">
            <g id="Illo" sketch:type="MSLayerGroup" transform="translate(50.000000, 0.000000)">
                <circle id="Oval-5" fill="#B3C3D4" sketch:type="MSShapeGroup" transform="translate(29.500000, 100.500000) scale(-1, 1) translate(-29.500000, -100.500000) " cx="29.5" cy="100.5" r="24.5"></circle>
                <path d="M25.2978516,104.78418 L24.7851562,103.436523 L20.4199219,103.436523 L19.9072266,104.813477 C19.7070302,105.350589 19.5361335,105.713134 19.3945312,105.901123 C19.252929,106.089112 19.0209977,106.183105 18.6987305,106.183105 C18.4252916,106.183105 18.1835948,106.083009 17.9736328,105.882812 C17.7636708,105.682616 17.6586914,105.455568 17.6586914,105.20166 C17.6586914,105.055175 17.6831052,104.903809 17.7319336,104.747559 C17.780762,104.591308 17.8613276,104.374025 17.9736328,104.095703 L20.7202148,97.1230469 C20.7983402,96.9228506 20.8923334,96.6823745 21.0021973,96.4016113 C21.1120611,96.1208482 21.2292474,95.8876962 21.3537598,95.7021484 C21.4782721,95.5166006 21.6418447,95.3664557 21.8444824,95.251709 C22.0471202,95.1369623 22.2973618,95.0795898 22.5952148,95.0795898 C22.8979507,95.0795898 23.1506338,95.1369623 23.3532715,95.251709 C23.5559092,95.3664557 23.7194818,95.5141593 23.8439941,95.6948242 C23.9685065,95.8754892 24.0734859,96.069579 24.1589355,96.2770996 C24.2443852,96.4846202 24.3530267,96.761717 24.4848633,97.1083984 L27.2900391,104.037109 C27.5097667,104.564456 27.6196289,104.947753 27.6196289,105.187012 C27.6196289,105.436036 27.5158702,105.664306 27.3083496,105.871826 C27.100829,106.079347 26.8505874,106.183105 26.5576172,106.183105 C26.3867179,106.183105 26.240235,106.152588 26.1181641,106.091553 C25.9960931,106.030517 25.8935551,105.94751 25.8105469,105.842529 C25.7275386,105.737548 25.6384282,105.576417 25.5432129,105.359131 C25.4479976,105.141845 25.3662113,104.950196 25.2978516,104.78418 L25.2978516,104.78418 Z M20.9912109,101.803223 L24.1992188,101.803223 L22.5805664,97.3720703 L20.9912109,101.803223 Z M33.3837891,101.817871 L31.3916016,101.817871 L31.3916016,104.857422 C31.3916016,105.291994 31.2890635,105.621581 31.0839844,105.846191 C30.8789052,106.070802 30.6201187,106.183105 30.3076172,106.183105 C29.9804671,106.183105 29.7167979,106.072023 29.5166016,105.849854 C29.3164052,105.627684 29.2163086,105.30176 29.2163086,104.87207 L29.2163086,96.5957031 C29.2163086,96.1171851 29.3261708,95.7753917 29.5458984,95.5703125 C29.7656261,95.3652333 30.1147437,95.2626953 30.5932617,95.2626953 L33.3837891,95.2626953 C34.2089885,95.2626953 34.8437478,95.3261712 35.2880859,95.453125 C35.7275413,95.5751959 36.1071761,95.7778306 36.427002,96.0610352 C36.7468278,96.3442397 36.9897453,96.6909159 37.1557617,97.1010742 C37.3217782,97.5112325 37.4047852,97.9726537 37.4047852,98.4853516 C37.4047852,99.579107 37.0678745,100.407956 36.394043,100.971924 C35.7202115,101.535891 34.7168035,101.817871 33.3837891,101.817871 L33.3837891,101.817871 Z M32.8564453,96.8959961 L31.3916016,96.8959961 L31.3916016,100.177246 L32.8564453,100.177246 C33.3691432,100.177246 33.7976057,100.123536 34.1418457,100.016113 C34.4860857,99.9086909 34.7485343,99.7329114 34.9291992,99.4887695 C35.1098642,99.2446277 35.2001953,98.9248067 35.2001953,98.5292969 C35.2001953,98.0556617 35.0610365,97.6699234 34.7827148,97.3720703 C34.4702133,97.0546859 33.8281299,96.8959961 32.8564453,96.8959961 L32.8564453,96.8959961 Z M39.309082,104.857422 L39.309082,96.3979492 C39.309082,95.9584939 39.4091787,95.6289073 39.609375,95.4091797 C39.8095713,95.189452 40.0683578,95.0795898 40.3857422,95.0795898 C40.7128923,95.0795898 40.9777822,95.1882313 41.1804199,95.4055176 C41.3830577,95.6228038 41.484375,95.9536111 41.484375,96.3979492 L41.484375,104.857422 C41.484375,105.30176 41.3830577,105.633788 41.1804199,105.853516 C40.9777822,106.073243 40.7128923,106.183105 40.3857422,106.183105 C40.0732406,106.183105 39.8156748,106.072023 39.6130371,105.849854 C39.4103994,105.627684 39.309082,105.296877 39.309082,104.857422 L39.309082,104.857422 Z" id="API" fill="#FFFFFF" sketch:type="MSShapeGroup"></path>
                <circle id="Oval-5" fill="#765FA1" sketch:type="MSShapeGroup" cx="30" cy="30" r="30"></circle>
                <g id="Group" transform="translate(30.000000, 31.000000) rotate(-45.000000) translate(-30.000000, -31.000000) translate(15.000000, 16.000000)" fill="#FFFFFF" sketch:type="MSShapeGroup">
                    <path d="M0.758637968,29.582765 L9.66339985,25.6239752 L4.53231593,20.4990363 L0.758637968,29.582765 Z" id="Shape"></path>
                    <path d="M22.256036,18.3036036 C28.0783784,12.0176577 31.7787387,3.64279279 29.0365766,0.90045045 C26.3088288,-1.82711712 18.1922523,1.98135135 11.908018,7.76171171 C11.7836937,7.87621622 11.5386486,8.09306306 11.1002703,8.00153153 L9.14234234,7.53531532 C8.59873874,7.40603604 7.83063063,7.62333333 7.4354955,8.01846847 L0.251261261,15.2026126 C-0.143873874,15.5978378 -0.0154954955,15.9921622 0.536576577,16.0788288 L5.7327027,16.8954054 C6.28477477,16.9822523 13.0202703,23.7176577 13.1071171,24.2698198 L13.9236036,29.4658559 C14.0103604,30.0181081 14.4046847,30.1464865 14.7998198,29.7512613 L21.9841441,22.5669369 C22.3791892,22.1718018 22.5965766,21.4038739 22.4671171,20.8602703 L22.0197297,18.9811712 C21.9001802,18.6007207 22.1506306,18.4173874 22.256036,18.3036036 Z M20.4112613,9.69963964 C19.1944144,8.48279279 19.1944144,6.51009009 20.4112613,5.29342342 C21.628018,4.07657658 23.6007207,4.07657658 24.8176577,5.29342342 C26.0343243,6.51 26.0343243,8.48279279 24.8176577,9.69954955 C23.6007207,10.9163964 21.6279279,10.9163964 20.4112613,9.69963964 L20.4112613,9.69963964 Z" id="Shape"></path>
                </g>
                <circle id="Oval-5" fill="#B3C3D4" sketch:type="MSShapeGroup" transform="translate(30.000000, 68.000000) scale(-1, 1) translate(-30.000000, -68.000000) " cx="30" cy="68" r="4"></circle>
            </g>
        </g>
    </g>
</svg>