<?xml version="1.0" encoding="UTF-8" standalone="no"?>
<svg width="160px" height="125px" viewBox="0 0 160 125" version="1.1" xmlns="http://www.w3.org/2000/svg" xmlns:xlink="http://www.w3.org/1999/xlink" xmlns:sketch="http://www.bohemiancoding.com/sketch/ns">
    <!-- Generator: Sketch 3.4.3 (16618) - http://www.bohemiancoding.com/sketch -->
    <title>Icon</title>
    <desc>Created with Sketch.</desc>
    <defs></defs>
    <g id="Website" stroke="none" stroke-width="1" fill="none" fill-rule="evenodd" sketch:type="MSPage">
        <g id="Icon" sketch:type="MSArtboardGroup">
            <g id="Illo" sketch:type="MSLayerGroup" transform="translate(10.000000, 0.000000)">
                <circle id="Oval-5" fill="#40AFCA" sketch:type="MSShapeGroup" transform="translate(68.500000, 89.500000) scale(-1, 1) translate(-68.500000, -89.500000) " cx="68.5" cy="89.5" r="35.5"></circle>
                <g id="Shape-+-Shape" transform="translate(51.000000, 73.000000)" fill="#FFFFFF" sketch:type="MSShapeGroup">
                    <path d="M16.4875973,6.4412571 C16.0316997,6.50858991 15.5956237,6.2194549 15.4886265,5.77188975 C15.3656927,5.26095253 14,-2.31209789e-08 6.38653117,1.05067147 C5.56701727,1.16376577 5.07433885,2.00917384 5.43509263,2.75379551 L7.04064516,6.04122099 C5.25669791,7.5938364 3.90882665,9.49499812 3.15164015,11.6140013 L1.1932625,11.6060798 C0.535184176,11.602119 0,12.1368208 0,12.7943059 L0,17.1828208 C0,17.6263856 0.245788288,18.0303825 0.638256684,18.2363813 L3.17939044,19.559273 C4.24183014,22.4862303 6.44203175,24.9973877 9.34391928,26.728237 L9.34391928,30.6137362 C9.34391928,31.3781617 9.96631866,32 10.7314338,32 L14.2913997,32 C14.8424015,32 15.3419464,31.6712575 15.5639487,31.1682417 L16.4559223,29.1205321 C17.2250018,29.2155902 18.0060139,29.2631589 18.8067684,29.2631589 C20.0674641,29.2631589 21.2924016,29.1443363 22.4698067,28.9185733 L22.4698067,30.6137362 C22.4698067,31.3781617 23.0922061,32 23.8573213,32 L27.4014298,32 C27.9127884,32 28.384583,31.7187865 28.6263673,31.2672606 C30.5134267,27.7263469 33.3033907,24.3573624 34.0773172,20.4662856 C37,5.77188962 18.0376889,6.20757264 16.4875973,6.4412571 Z M9.56988593,13.6775539 C8.58276845,13.6775539 7.78593868,12.8814028 7.78593868,11.8952148 C7.78593868,10.9089871 8.58276845,10.1128757 9.56988593,10.1128757 C10.5570034,10.1128757 11.3538332,10.9089871 11.3538332,11.8952148 C11.3537935,12.8814424 10.5570034,13.6775539 9.56988593,13.6775539 L9.56988593,13.6775539 Z M20.1743224,9.67192813 C20.3265527,9.14103796 20.8789818,8.83368653 21.4088612,8.985627 L28.1424135,10.9164421 C28.6720002,11.0682986 28.9789693,11.6180729 28.8256776,12.1526643 L28.8256776,12.1526643 C28.6734473,12.6835545 28.1210182,12.9909059 27.5911388,12.8389655 L20.8575865,10.9081504 C20.3279998,10.7562939 20.0210307,10.2065196 20.1743224,9.67192813 L20.1743224,9.67192813 Z" id="Shape"></path>
                </g>
                <g id="Oval-5-+-$" transform="translate(69.000000, 0.000000)" sketch:type="MSShapeGroup">
                    <circle id="Oval-5" fill="#B3C3D4" transform="translate(17.500000, 17.500000) scale(-1, 1) translate(-17.500000, -17.500000) " cx="17.5" cy="17.5" r="17.5"></circle>
                    <path d="M17.263,27.2 L19.023,27.2 L19.023,25.22 C22.323,24.934 23.797,22.954 23.797,20.71 C23.797,17.762 21.311,16.904 19.023,16.31 L19.023,12.504 C20.101,12.724 21.157,13.23 21.993,14.066 L23.445,12.152 C22.301,11.052 20.805,10.348 19.023,10.15 L19.023,8.104 L17.263,8.104 L17.263,10.128 C14.425,10.37 12.621,12.152 12.621,14.396 C12.621,17.256 14.997,18.07 17.263,18.642 L17.263,22.91 C15.679,22.668 14.403,21.832 13.589,20.93 L12.137,22.932 C13.303,24.142 14.997,25.044 17.263,25.22 L17.263,27.2 Z M21.157,20.952 C21.157,21.81 20.541,22.712 19.023,22.932 L19.023,19.104 C20.233,19.478 21.157,19.962 21.157,20.952 L21.157,20.952 Z M15.261,14.198 C15.261,13.23 16.031,12.548 17.263,12.394 L17.263,15.848 C16.097,15.496 15.261,15.056 15.261,14.198 L15.261,14.198 Z" id="$" opacity="0.5" fill="#FFFFFF"></path>
                </g>
                <g id="Oval-5-+-$" transform="translate(0.000000, 33.000000)" sketch:type="MSShapeGroup">
                    <circle id="Oval-5" fill="#B3C3D4" transform="translate(17.500000, 17.500000) scale(-1, 1) translate(-17.500000, -17.500000) " cx="17.5" cy="17.5" r="17.5"></circle>
                    <path d="M17.263,27.2 L19.023,27.2 L19.023,25.22 C22.323,24.934 23.797,22.954 23.797,20.71 C23.797,17.762 21.311,16.904 19.023,16.31 L19.023,12.504 C20.101,12.724 21.157,13.23 21.993,14.066 L23.445,12.152 C22.301,11.052 20.805,10.348 19.023,10.15 L19.023,8.104 L17.263,8.104 L17.263,10.128 C14.425,10.37 12.621,12.152 12.621,14.396 C12.621,17.256 14.997,18.07 17.263,18.642 L17.263,22.91 C15.679,22.668 14.403,21.832 13.589,20.93 L12.137,22.932 C13.303,24.142 14.997,25.044 17.263,25.22 L17.263,27.2 Z M21.157,20.952 C21.157,21.81 20.541,22.712 19.023,22.932 L19.023,19.104 C20.233,19.478 21.157,19.962 21.157,20.952 L21.157,20.952 Z M15.261,14.198 C15.261,13.23 16.031,12.548 17.263,12.394 L17.263,15.848 C16.097,15.496 15.261,15.056 15.261,14.198 L15.261,14.198 Z" id="$" opacity="0.5" fill="#FFFFFF"></path>
                </g>
                <g id="Oval-5-+-$" transform="translate(120.000000, 68.000000)" sketch:type="MSShapeGroup">
                    <circle id="Oval-5" fill="#B3C3D4" transform="translate(10.500000, 10.500000) scale(-1, 1) translate(-10.500000, -10.500000) " cx="10.5" cy="10.5" r="10.5"></circle>
                    <path d="M10.3578,16.32 L11.4138,16.32 L11.4138,15.132 C13.3938,14.9604 14.2782,13.7724 14.2782,12.426 C14.2782,10.6572 12.7866,10.1424 11.4138,9.786 L11.4138,7.5024 C12.0606,7.6344 12.6942,7.938 13.1958,8.4396 L14.067,7.2912 C13.3806,6.6312 12.483,6.2088 11.4138,6.09 L11.4138,4.8624 L10.3578,4.8624 L10.3578,6.0768 C8.655,6.222 7.5726,7.2912 7.5726,8.6376 C7.5726,10.3536 8.9982,10.842 10.3578,11.1852 L10.3578,13.746 C9.4074,13.6008 8.6418,13.0992 8.1534,12.558 L7.2822,13.7592 C7.9818,14.4852 8.9982,15.0264 10.3578,15.132 L10.3578,16.32 Z M12.6942,12.5712 C12.6942,13.086 12.3246,13.6272 11.4138,13.7592 L11.4138,11.4624 C12.1398,11.6868 12.6942,11.9772 12.6942,12.5712 L12.6942,12.5712 Z M9.1566,8.5188 C9.1566,7.938 9.6186,7.5288 10.3578,7.4364 L10.3578,9.5088 C9.6582,9.2976 9.1566,9.0336 9.1566,8.5188 L9.1566,8.5188 Z" id="$" opacity="0.5" fill="#FFFFFF"></path>
                </g>
            </g>
        </g>
    </g>
</svg>