<?xml version="1.0" encoding="UTF-8" standalone="no"?>
<svg width="195px" height="74px" viewBox="0 0 195 74" version="1.1" xmlns="http://www.w3.org/2000/svg" xmlns:xlink="http://www.w3.org/1999/xlink" xmlns:sketch="http://www.bohemiancoding.com/sketch/ns">
    <!-- Generator: Sketch 3.4.3 (16618) - http://www.bohemiancoding.com/sketch -->
    <title>illo3</title>
    <desc>Created with Sketch.</desc>
    <defs></defs>
    <g id="Website" stroke="none" stroke-width="1" fill="none" fill-rule="evenodd" sketch:type="MSPage">
        <g id="home" sketch:type="MSArtboardGroup" transform="translate(-611.000000, -1291.000000)">
            <g id="illo3" sketch:type="MSLayerGroup" transform="translate(611.000000, 1294.000000)">
                <g id="illo1" transform="translate(56.000000, 0.000000)" stroke="#252525" stroke-width="5" fill="#343434" sketch:type="MSShapeGroup">
                    <rect id="Rectangle-145" x="0" y="0" width="102" height="61" rx="3.7933056"></rect>
                </g>
                <rect id="Rectangle-145" fill="#F8F8F8" sketch:type="MSShapeGroup" x="46" y="63" width="121" height="7" rx="2"></rect>
                <rect id="Rectangle-145" fill="#C2C2C2" sketch:type="MSShapeGroup" x="99" y="63" width="16" height="3" rx="2"></rect>
                <path d="M173.057356,38.0074612 C173.025679,36.898771 173.902344,36 174.994561,36 L192.005439,36 C193.107004,36 193.974276,36.9003455 193.942644,38.0074612 L193.057356,68.9925388 C193.025679,70.101229 192.109075,71 191.002578,71 L175.997422,71 C174.894276,71 173.974276,70.0996545 173.942644,68.9925388 L173.057356,38.0074612 Z" id="Path" fill="#FFFFFF" sketch:type="MSShapeGroup"></path>
                <rect id="Rectangle-371" fill="#FFFFFF" sketch:type="MSShapeGroup" x="51" y="63" width="112" height="7" rx="2"></rect>
                <path d="M171.988586,43.0058587 C171.973219,41.8980535 172.865464,41 173.968452,41 L193.031547,41 C194.140364,41 195.026794,41.8970601 195.011412,43.0058587 L194.872851,52.9941413 C194.857483,54.1019465 193.955548,55 192.851321,55 L174.148678,55 C173.047586,55 172.142529,54.1029399 172.127148,52.9941413 L171.988586,43.0058587 Z" id="Path" fill="#C9BDAB" sketch:type="MSShapeGroup"></path>
                <path d="M172.025431,36.9989566 C171.989714,36.4472481 172.401176,36 172.952414,36 L194.047585,36 C194.59526,36 195.010582,36.4426603 194.974568,36.9989566 L194.909695,38.0010434 C194.873979,38.5527519 194.391783,39 193.840785,39 L173.159214,39 C172.604587,39 172.126317,38.5573397 172.090303,38.0010434 L172.025431,36.9989566 Z" id="Path" fill="#9F9C99" sketch:type="MSShapeGroup"></path>
                <rect id="Rectangle-371" fill="#CFCFCF" sketch:type="MSShapeGroup" x="97" y="63" width="21" height="3" rx="2"></rect>
                <path d="M185,32 C185,23.4999996 193.5,29.5 193.5,21 C193.5,12.5 185,17.5 185,10.5" id="Path-560" stroke-opacity="0.300000012" stroke="#FFFFFF" stroke-width="2" stroke-linecap="round" stroke-linejoin="round" sketch:type="MSShapeGroup"></path>
                <path d="M180,27.4504559 C180,21.9504557 185.5,25.8328089 185.5,20.3328089 C185.5,14.8328089 180,18.068103 180,13.5386912" id="Path-560" stroke-opacity="0.300000012" stroke="#FFFFFF" stroke-width="2" stroke-linecap="round" stroke-linejoin="round" sketch:type="MSShapeGroup"></path>
                <g id="Group" transform="translate(62.000000, 6.000000)" sketch:type="MSShapeGroup">
                    <rect id="Rectangle-68" fill="#666E77" x="0" y="0" width="20.982659" height="2.8" rx="5.6"></rect>
                    <rect id="Rectangle-68" fill="#E15A5A" x="23.7803468" y="0" width="9.09248555" height="2.8" rx="5.6"></rect>
                    <rect id="Rectangle-68" fill="#84E15A" x="0" y="5.6" width="9.09248555" height="2.8" rx="5.6"></rect>
                    <rect id="Rectangle-68" fill="#84E15A" x="6.99421965" y="11.2" width="12.5895954" height="2.8" rx="5.6"></rect>
                    <rect id="Rectangle-68" fill="#666E77" x="11.8901734" y="5.6" width="20.982659" height="2.8" rx="5.6"></rect>
                    <rect id="Rectangle-68" fill="#666E77" x="22.3815029" y="11.2" width="6.99421965" height="2.8" rx="5.6"></rect>
                    <rect id="Rectangle-68" fill="#666E77" x="32.1734104" y="11.2" width="6.99421965" height="2.8" rx="5.6"></rect>
                    <rect id="Rectangle-68" fill="#E15A5A" x="6.99421965" y="16.8" width="9.09248555" height="2.8" rx="5.6"></rect>
                    <rect id="Rectangle-68" fill="#E15A5A" x="0" y="22.4" width="4.89595376" height="2.8" rx="5.6"></rect>
                    <rect id="Rectangle-68" fill="#666E77" x="6.99421965" y="22.4" width="32.1734104" height="2.8" rx="5.6"></rect>
                    <rect id="Rectangle-68" fill="#666E77" x="41.9653179" y="22.4" width="15.3872832" height="2.8" rx="5.6"></rect>
                    <rect id="Rectangle-68" fill="#666E77" x="41.9653179" y="11.2" width="15.3872832" height="2.8" rx="5.6"></rect>
                    <rect id="Rectangle-68" fill="#666E77" x="35.6705202" y="5.6" width="11.8901734" height="2.8" rx="5.6"></rect>
                    <rect id="Rectangle-68" fill="#D6CD5E" x="60.150289" y="11.2" width="12.5895954" height="2.8" rx="5.6"></rect>
                    <rect id="Rectangle-68" fill="#666E77" x="50.3583815" y="5.6" width="30.7745665" height="2.8" rx="5.6"></rect>
                    <rect id="Rectangle-68" fill="#D6CD5E" x="18.8843931" y="16.8" width="12.5895954" height="2.8" rx="5.6"></rect>
                    <rect id="Rectangle-68" fill="#666E77" x="35.6705202" y="0" width="20.982659" height="2.8" rx="5.6"></rect>
                    <rect id="Rectangle-68" fill="#D6CD5E" x="59.4508671" y="0" width="20.982659" height="2.8" rx="5.6"></rect>
                    <rect id="Rectangle-68" fill="#84E15A" x="0" y="28" width="16.0867052" height="2.8" rx="5.6"></rect>
                    <rect id="Rectangle-68" fill="#84E15A" x="6.99421965" y="33.6" width="26.5780347" height="2.8" rx="5.6"></rect>
                    <rect id="Rectangle-68" fill="#666E77" x="18.8843931" y="28" width="37.0693642" height="2.8" rx="5.6"></rect>
                    <rect id="Rectangle-68" fill="#E15A5A" x="6.99421965" y="39.2" width="9.09248555" height="2.8" rx="5.6"></rect>
                    <rect id="Rectangle-68" fill="#E15A5A" x="53.8554913" y="39.2" width="4.89595376" height="2.8" rx="5.6"></rect>
                    <rect id="Rectangle-68" fill="#666E77" x="61.5491329" y="39.2" width="27.1700001" height="2.8" rx="5.6"></rect>
                    <rect id="Rectangle-68" fill="#D6CD5E" x="18.8843931" y="39.2" width="12.5895954" height="2.8" rx="5.6"></rect>
                    <rect id="Rectangle-68" fill="#666E77" x="58.7514451" y="28" width="24.4797688" height="2.8" rx="5.6"></rect>
                    <rect id="Rectangle-68" fill="#666E77" x="34.2716763" y="39.2" width="6.99421965" height="2.8" rx="5.6"></rect>
                    <rect id="Rectangle-68" fill="#666E77" x="44.0635838" y="39.2" width="6.99421965" height="2.8" rx="5.6"></rect>
                    <rect id="Rectangle-68" fill="#D6CD5E" x="60.150289" y="22.4" width="12.5895954" height="2.8" rx="5.6"></rect>
                    <rect id="Rectangle-68" fill="#666E77" x="75.5375723" y="11.2" width="11.8901734" height="2.8" rx="5.6"></rect>
                </g>
                <rect id="Rectangle-406" fill="#4990E2" sketch:type="MSShapeGroup" x="0.011609145" y="35" width="39" height="35" rx="1"></rect>
                <rect id="Rectangle-407" fill-opacity="0.200000003" fill="#FFFFFF" sketch:type="MSShapeGroup" x="17" y="35" width="5" height="35"></rect>
                <path d="M5.03573602,49.773616 C4.98883249,49.6600009 4.98809963,49.5627194 5.03353743,49.4817686 C5.07897523,49.4008178 5.1793766,49.360343 5.33474456,49.360343 L6.42084911,49.360343 C6.49413588,49.360343 6.55423014,49.3823556 6.60113367,49.4263814 C6.64803721,49.4704073 6.68321433,49.5250838 6.7066661,49.5904125 L7.95106928,53.0201527 L9.16908936,49.5904125 C9.20133554,49.4995204 9.24237552,49.4384532 9.29221053,49.407209 C9.34204553,49.3759648 9.41093407,49.360343 9.49887819,49.360343 L10.6289546,49.360343 C10.7110358,49.360343 10.7755272,49.3709942 10.8224307,49.3922971 C10.8693342,49.4135999 10.9023128,49.4420033 10.9213674,49.477508 C10.9404219,49.5130127 10.9470176,49.5527775 10.9411547,49.5968033 C10.9352917,49.6408292 10.923566,49.6841443 10.9059772,49.72675 C10.7945813,49.9937456 10.6729271,50.2855902 10.5410109,50.6022924 C10.4090947,50.9189946 10.2720505,51.2484736 10.1298742,51.5907393 C9.98769782,51.9330049 9.84332504,52.2809461 9.69675149,52.6345733 C9.55017795,52.9882004 9.40727088,53.3354315 9.26802601,53.676277 C9.12878114,54.0171224 8.99466836,54.3444712 8.86568364,54.658333 C8.73669892,54.9721949 8.61870898,55.260489 8.5117103,55.523224 C8.40471161,55.7859591 8.26967429,56.0755189 8.26967429,56.0755189 C8.22133638,56.1810992 8.08775835,56.3125021 7.99426339,56.3578797 L7.01109386,56.8350583 C6.6882213,56.9917636 6.50755018,56.8475484 6.61216153,56.4975268 L7.13319298,54.7541953 L5.03573602,49.773616 Z M15.7528591,54.1278949 C15.4948897,54.3579656 15.2046784,54.5376169 14.8822166,54.6668541 C14.5597548,54.7960914 14.2182436,54.860709 13.8576726,54.860709 C13.4560611,54.860709 13.0764413,54.7897006 12.7188019,54.6476817 C12.3611624,54.5056627 12.0474997,54.3089694 11.7778044,54.0575959 C11.5081091,53.8062224 11.2941149,53.5101173 11.1358155,53.1692719 C10.9775161,52.8284264 10.8983675,52.4577626 10.8983675,52.0572692 C10.8983675,51.8073158 10.9298804,51.5651772 10.992907,51.3308459 C11.0559336,51.0965147 11.1453421,50.8770987 11.2611352,50.6725914 C11.3769284,50.4680841 11.5176368,50.2799119 11.683265,50.108069 C11.8488931,49.936226 12.0343058,49.7892386 12.2395088,49.6671023 C12.4447117,49.5449661 12.6675002,49.4498148 12.9078808,49.3816457 C13.1482614,49.3134766 13.4018299,49.2793926 13.6685937,49.2793926 C13.9119058,49.2793926 14.1478857,49.3106363 14.3765404,49.3731246 C14.6051951,49.4356129 14.8199222,49.5236634 15.0207279,49.6372785 C15.2215337,49.7508937 15.4054807,49.8872298 15.5725746,50.046291 C15.7396684,50.2053522 15.8833083,50.3793228 16.0034986,50.568208 C16.1236889,50.7570932 16.2167617,50.9587571 16.2827198,51.1732057 C16.3486779,51.3876543 16.3816565,51.6084904 16.3816565,51.8357207 C16.3816565,51.9834204 16.3794579,52.1041347 16.3750607,52.1978672 C16.3706635,52.2915997 16.3479449,52.3661585 16.3069044,52.4215459 C16.2658638,52.4769333 16.1977081,52.5152778 16.1024353,52.5365807 C16.0071625,52.5578835 15.8671868,52.5685348 15.6825042,52.5685348 L12.5165314,52.5685348 C12.5458461,52.750319 12.6052075,52.902277 12.6946174,53.0244133 C12.7840272,53.1465496 12.88736,53.2438311 13.0046189,53.3162608 C13.1218777,53.3886904 13.2464633,53.4405266 13.3783795,53.4717707 C13.5102957,53.5030149 13.6348814,53.5186367 13.7521402,53.5186367 C13.8576732,53.5186367 13.966136,53.5079855 14.0775319,53.4866826 C14.1889278,53.4653798 14.2966577,53.4369764 14.4007249,53.4014717 C14.5047921,53.365967 14.6000635,53.3247821 14.6865419,53.2779158 C14.7730203,53.2310496 14.8426417,53.1820538 14.8954082,53.130927 C14.9423117,53.094002 14.9826188,53.0663088 15.0163307,53.0478463 C15.0500426,53.0293838 15.0859526,53.0201527 15.1240618,53.0201527 C15.1621709,53.0201527 15.2010123,53.0329343 15.2405871,53.0584977 C15.280162,53.0840611 15.3248663,53.1209854 15.3747013,53.1692719 L15.8408028,53.6805375 C15.873049,53.7174624 15.893569,53.7508364 15.9023634,53.7806604 C15.9111578,53.8104843 15.9155549,53.841018 15.9155549,53.8722621 C15.9155549,53.9290697 15.8994321,53.9780655 15.8671859,54.019251 C15.8349397,54.0604365 15.7968312,54.0966508 15.7528591,54.1278949 L15.7528591,54.1278949 Z M17.4908122,49.3433008 L18.5405995,49.3433008 C18.8697875,49.3433008 18.8237031,49.6671023 18.8237031,49.6671023 L18.8237031,49.7054466 C18.8237031,49.7054466 19.1989755,49.2367871 20.2082721,49.2793926 C20.609646,49.2963358 20.9799763,49.3511111 21.3185612,49.4945502 C21.6571461,49.6379893 21.9488231,49.8353927 22.1936009,50.0867662 C22.4383787,50.3381397 22.6296543,50.6335347 22.7674335,50.97296 C22.9052126,51.3123852 22.9741011,51.6794987 22.9741011,52.0743113 C22.9741011,52.4662836 22.9052126,52.832687 22.7674335,53.1735324 C22.6296543,53.5143779 22.4383787,53.8104829 22.1936009,54.0618565 C21.9488231,54.31323 21.6571461,54.5113434 21.3185612,54.6562028 C20.9799763,54.8010621 20.6098836,54.8734906 20.2082721,54.8734906 C18.9795169,54.8734907 18.8237031,54.5709918 18.8237031,54.5709918 L18.8232257,56.1260498 C18.8231889,56.2460776 18.7326133,56.3827786 18.6166527,56.4332368 L17.5296418,56.9062296 C17.313917,57.0000983 17.1390374,56.8777907 17.1390374,56.6344023 L17.1390374,49.6585813 C17.1390374,49.6585813 17.1141181,49.3433008 17.4908122,49.3433008 Z M22.9956112,55.7432477 C22.9956112,55.6205554 23.0836867,55.4949723 23.2072346,55.4583306 L23.2387888,55.4489723 C23.5011818,55.3711521 23.7138933,55.0949548 23.7138933,54.8101151 L23.7138933,49.6969262 C23.7138933,49.5861514 23.7505361,49.5030716 23.8238229,49.4476842 C23.8971097,49.3922968 23.9777239,49.3646035 24.0656681,49.3646035 L25.0638289,49.3646035 C25.1693619,49.3646035 25.2514418,49.3972674 25.3100712,49.4625961 C25.3687007,49.5279248 25.3980149,49.6060341 25.3980149,49.6969262 L25.3980149,55.0825682 C25.3980149,55.7506585 24.8885269,56.467542 24.2531011,56.6861601 L23.414078,56.9748257 C23.1829652,57.05434 22.9956112,56.9228891 22.9956112,56.6822191 L22.9956112,55.7432477 Z M30.0996703,54.6668541 C29.7772085,54.7960914 29.4356972,54.860709 29.0751263,54.860709 C28.6735148,54.860709 28.293895,54.7897006 27.9362555,54.6476817 C27.5786161,54.5056627 27.2649534,54.3089694 26.9952581,54.0575959 C26.7255628,53.8062224 26.5115686,53.5101173 26.3532692,53.1692719 C26.1949697,52.8284264 26.1158212,52.4577626 26.1158212,52.0572692 C26.1158212,51.8073158 26.147334,51.5651772 26.2103607,51.3308459 C26.2733873,51.0965147 26.3627958,50.8770987 26.4785889,50.6725914 C26.594382,50.4680841 26.7350905,50.2799119 26.9007186,50.108069 C27.0663467,49.936226 27.2517595,49.7892386 27.4569624,49.6671023 C27.6621654,49.5449661 27.8849539,49.4498148 28.1253345,49.3816457 C28.3657151,49.3134766 28.6192835,49.2793926 28.8860474,49.2793926 C29.1293595,49.2793926 29.3653393,49.3106363 29.5939941,49.3731246 C29.8226488,49.4356129 30.0373758,49.5236634 30.2381816,49.6372785 C30.4389873,49.7508937 30.6229344,49.8872298 30.7900282,50.046291 C30.9571221,50.2053522 31.100762,50.3793228 31.2209523,50.568208 C31.3411426,50.7570932 31.4342154,50.9587571 31.5001735,51.1732057 C31.5661316,51.3876543 31.5991102,51.6084904 31.5991102,51.8357207 C31.5991102,51.9834204 31.5969116,52.1041347 31.5925144,52.1978672 C31.5881172,52.2915997 31.5653986,52.3661585 31.524358,52.4215459 C31.4833174,52.4769333 31.4151618,52.5152778 31.3198889,52.5365807 C31.2246161,52.5578835 31.0846405,52.5685348 30.8999578,52.5685348 L27.7339851,52.5685348 C27.7632998,52.750319 27.8226612,52.902277 27.912071,53.0244133 C28.0014809,53.1465496 28.1048137,53.2438311 28.2220725,53.3162608 C28.3393314,53.3886904 28.463917,53.4405266 28.5958332,53.4717707 C28.7277494,53.5030149 28.852335,53.5186367 28.9695939,53.5186367 C29.0751268,53.5186367 29.1835896,53.5079855 29.2949855,53.4866826 C29.4063814,53.4653798 29.5141114,53.4369764 29.6181786,53.4014717 C29.7222458,53.365967 29.8175172,53.3247821 29.9039956,53.2779158 C29.990474,53.2310496 30.0600953,53.1820538 30.1128618,53.130927 C30.1597654,53.094002 30.2000725,53.0663088 30.2337844,53.0478463 C30.2674963,53.0293838 30.3034063,53.0201527 30.3415154,53.0201527 C30.3796245,53.0201527 30.4184659,53.0329343 30.4580408,53.0584977 C30.4976157,53.0840611 30.5423199,53.1209854 30.5921549,53.1692719 L31.0582565,53.6805375 C31.0905027,53.7174624 31.1110226,53.7508364 31.1198171,53.7806604 C31.1286115,53.8104843 31.1330086,53.841018 31.1330086,53.8722621 C31.1330086,53.9290697 31.1168858,53.9780655 31.0846396,54.019251 C31.0523934,54.0604365 31.0142848,54.0966508 30.9703128,54.1278949 C30.7123433,54.3579656 30.4221321,54.5376169 30.0996703,54.6668541 Z M27.7578638,51.4735742 L30.1719092,51.4735742 C30.1719092,51.4735742 29.9524505,50.5149512 28.9648865,50.5149512 C27.9773224,50.5149512 27.7578638,51.4735742 27.7578638,51.4735742 Z M12.4835388,51.4735742 L14.8975842,51.4735742 C14.8975842,51.4735742 14.6781255,50.5149512 13.6905615,50.5149512 C12.7029974,50.5149512 12.4835388,51.4735742 12.4835388,51.4735742 Z M32.2561569,48.5210152 C32.2561569,48.4329635 32.2862041,48.3669257 32.3462992,48.3228998 C32.4063944,48.2788739 32.4921386,48.236979 32.6035345,48.1972137 L33.6016954,47.8606305 C33.6163527,47.8577901 33.630277,47.8563699 33.6434686,47.8563699 L33.6808447,47.8563699 C33.7893091,47.8563699 33.8618619,47.8869035 33.8985053,47.9479717 C33.9351487,48.0090398 33.9534701,48.0892793 33.9534701,48.1886926 L33.9490729,49.5307648 L34.6834027,49.5307648 C34.7772098,49.5307648 34.8534269,49.557748 34.9120563,49.6117152 C34.9706857,49.6656824 35,49.746632 35,49.8545664 L35,50.676852 C35,50.7961479 34.9706857,50.8834882 34.9120563,50.9388756 C34.8534269,50.994263 34.7772098,51.0219563 34.6834027,51.0219563 L33.9490729,51.0219563 L33.9534701,54.447436 C33.9534701,54.5553703 33.9212244,54.63703 33.8567321,54.6924174 C33.7922397,54.7478048 33.7028312,54.7754981 33.5885038,54.7754981 L32.5947401,54.7754981 C32.3690169,54.7754981 32.2561569,54.6661451 32.2561569,54.447436 L32.2561569,48.5210152 Z M24.575713,48.7042187 C25.0605277,48.7042187 25.4535477,48.3227164 25.4535477,47.8521094 C25.4535477,47.3815024 25.0605277,47 24.575713,47 C24.0908983,47 23.6978783,47.3815024 23.6978783,47.8521094 C23.6978783,48.3227164 24.0908983,48.7042187 24.575713,48.7042187 Z M20.1207046,53.4760299 C20.9085285,53.4760299 21.547186,52.8560886 21.547186,52.0913522 C21.547186,51.3266158 20.9085285,50.7066745 20.1207046,50.7066745 C19.3328807,50.7066745 18.6942232,51.3266158 18.6942232,52.0913522 C18.6942232,52.8560886 19.3328807,53.4760299 20.1207046,53.4760299 Z" id="yepjet" fill="#FFFFFF" sketch:type="MSShapeGroup"></path>
            </g>
        </g>
    </g>
</svg>