<?xml version="1.0" encoding="UTF-8" standalone="no"?>
<svg width="250px" height="108px" viewBox="0 0 250 108" version="1.1" xmlns="http://www.w3.org/2000/svg" xmlns:xlink="http://www.w3.org/1999/xlink" xmlns:sketch="http://www.bohemiancoding.com/sketch/ns">
    <!-- Generator: Sketch 3.4.3 (16618) - http://www.bohemiancoding.com/sketch -->
    <title>Icon</title>
    <desc>Created with Sketch.</desc>
    <defs></defs>
    <g id="Website" stroke="none" stroke-width="1" fill="none" fill-rule="evenodd" sketch:type="MSPage">
        <g id="Icon" sketch:type="MSArtboardGroup">
            <g id="Group" sketch:type="MSLayerGroup" transform="translate(7.000000, 0.000000)">
                <g transform="translate(0.000000, 6.400000)" sketch:type="MSShapeGroup">
                    <path d="M24.0610541,16 L85.3365385,47.68" id="Path-213" stroke="#D0DAE5" stroke-width="3.456"></path>
                    <path d="M137.950043,6.08 L87.9030509,48.32" id="Path-214" stroke="#D0DAE5" stroke-width="3.456"></path>
                    <path d="M152.065862,55.04 L88.544679,48.32" id="Path-215" stroke="#D0DAE5" stroke-width="3.456"></path>
                    <path d="M36.2519881,74.88 L87.5822368,47.36" id="Path-216" stroke="#D0DAE5" stroke-width="3.456"></path>
                    <path d="M37.5352444,75.2 L31.7605914,52.48 L10.2660497,44.16" id="Path-218" stroke="#D0DAE5" stroke-width="3.456"></path>
                    <path d="M138.270857,6.4 L167.144122,18.88" id="Path-217" stroke="#D0DAE5" stroke-width="3.456"></path>
                    <ellipse id="Oval-5" fill="#B3C3D4" cx="151.424234" cy="55.04" rx="19.2488433" ry="19.2"></ellipse>
                    <ellipse id="Oval-5" fill="#B3C3D4" cx="137.950043" cy="6.4" rx="5.77465298" ry="5.76"></ellipse>
                    <ellipse id="Oval-5" fill="#B3C3D4" cx="24.7026822" cy="16.32" rx="16.3615168" ry="16.32"></ellipse>
                    <ellipse id="Oval-5" fill="#B3C3D4" cx="36.8936163" cy="74.56" rx="11.87012" ry="11.84"></ellipse>
                    <ellipse id="Oval-5" fill="#B3C3D4" cx="166.502494" cy="18.88" rx="4.17058271" ry="4.16"></ellipse>
                    <ellipse id="Oval-5" fill="#B3C3D4" cx="30.4773352" cy="52.16" rx="4.17058271" ry="4.16"></ellipse>
                    <ellipse id="Oval-5" fill="#B3C3D4" cx="6.09546703" cy="43.2" rx="6.09546703" ry="6.08"></ellipse>
                </g>
                <g transform="translate(194.691217, 54.187369) scale(-1, -1) rotate(19.000000) translate(-194.691217, -54.187369) translate(150.620704, 12.587369)" sketch:type="MSShapeGroup">
                    <path d="M24.0610541,12.8 L85.3365385,44.48" id="Path-213" stroke="#D0DAE5" stroke-width="3.456"></path>
                    <path d="M36.2519881,71.68 L87.5822368,44.16" id="Path-216" stroke="#D0DAE5" stroke-width="3.456"></path>
                    <path d="M37.5352444,72 L31.7605914,49.28 L10.2660497,40.96" id="Path-218" stroke="#D0DAE5" stroke-width="3.456"></path>
                    <ellipse id="Oval-5" fill="#B3C3D4" cx="24.7026822" cy="13.12" rx="12.6563404" ry="12.6242254"></ellipse>
                    <ellipse id="Oval-5" fill="#B3C3D4" cx="36.8936163" cy="71.36" rx="11.87012" ry="11.84"></ellipse>
                    <ellipse id="Oval-5" fill="#B3C3D4" cx="30.4773352" cy="48.96" rx="4.17058271" ry="4.16"></ellipse>
                    <ellipse id="Oval-5" fill="#B3C3D4" cx="6.09546703" cy="40" rx="6.09546703" ry="6.08"></ellipse>
                </g>
                <g id="IATA-Card" transform="translate(41.666667, 33.600000)" sketch:type="MSShapeGroup">
                    <rect id="Rectangle-145" fill="#D8D8D8" x="0" y="0" width="59.2948718" height="40" rx="2.24"></rect>
                    <rect id="Rectangle-146" fill="#CACACA" x="0" y="12" width="59.2948718" height="24.2253521"></rect>
                    <path d="M48.9770736,9 L48.9770736,3.02368 L47.4359536,3.02368 L47.4359536,9 L48.9770736,9 Z M52.5700336,9 C54.4426736,9 55.7956336,7.86208 55.7956336,6.00736 C55.7956336,4.15264 54.4426736,3.02368 52.5610736,3.02368 L50.0522736,3.02368 L50.0522736,9 L52.5700336,9 Z M52.5610736,7.656 L51.5933936,7.656 L51.5933936,4.36768 L52.5700336,4.36768 C53.6631536,4.36768 54.2186736,5.08448 54.2186736,6.00736 C54.2186736,6.8944 53.6093936,7.656 52.5610736,7.656 L52.5610736,7.656 Z" id="ID" fill="#B2B2B2"></path>
                    <path d="M19.7580261,32 L20.837098,26.6041416 L22.5891124,26.6041416 L21.5100406,32 L19.7580261,32 L19.7580261,32 Z M25.0395359,30.2353356 L26.1568904,30.2353356 L25.864777,28.2546238 L25.0395359,30.2353356 L25.0395359,30.2353356 Z M22.5891124,32 L25.230117,26.6041416 L26.9566652,26.6041416 L28.0485534,32 L26.423371,32 L26.3346551,31.3651735 L24.6079405,31.3651735 L24.3286435,32 L22.5891124,32 L22.5891124,32 Z M29.6609194,32 L30.2576296,27.9372106 L28.734146,27.9372106 L28.9881431,26.5788417 L33.6982425,26.5788417 L33.4315954,27.9372106 L31.9843443,27.9372106 L31.387634,32 L29.6609194,32 L29.6609194,32 Z M35.5391394,30.2353356 L36.6566603,30.2353356 L36.3645469,28.2546238 L35.5391394,30.2353356 L35.5391394,30.2353356 Z M33.0888824,32 L35.7297205,26.6041416 L37.469085,26.6041416 L38.5481569,32 L36.910491,32 L36.8342586,31.3651735 L35.1077104,31.3651735 L34.8282469,32 L33.0888824,32 L33.0888824,32 Z M42.3697655,20.5098742 L34.1426543,20.5098742 C33.837891,22.0207079 32.7842855,23.2777109 30.7020414,24.1537181 C30.9432222,24.8774269 31.7556469,25.5503696 32.5937044,25.5503696 L37.0627894,25.5503696 C37.7357321,25.5503696 38.2816762,24.9663093 38.4973907,24.509414 L33.9522397,24.509414 C33.6855926,24.4584814 33.6602927,24.2426005 33.9395898,24.2173006 L38.4086748,24.2173006 C38.9799187,24.2173006 39.5132129,23.7094728 39.8049934,23.1761786 L34.612366,23.1761786 C34.3457189,23.1380624 34.3457189,22.9095315 34.612366,22.8714153 L39.8432761,22.8714153 C40.3764038,22.8714153 40.8589318,22.2620551 41.0493465,21.8431096 L35.2979586,21.8431096 C35.0186616,21.8049934 35.0186616,21.5383463 35.2979586,21.5256964 L41.1636951,21.5256964 C41.6207568,21.5256964 42.0650022,21.0305184 42.3697655,20.5098742 L42.3697655,20.5098742 Z M16,20.5098742 L24.2397611,20.5098742 C24.544358,22.0207079 25.58548,23.2777109 27.6675576,24.1537181 C27.4391932,24.8774269 26.626602,25.5503696 25.788711,25.5503696 L21.319626,25.5503696 C20.6340334,25.5503696 20.1007392,24.9663093 19.8848583,24.509414 L24.4173594,24.509414 C24.6968228,24.4584814 24.7094728,24.2426005 24.4301757,24.2173006 L19.9739071,24.2173006 C19.3898468,24.2173006 18.869369,23.7094728 18.5646057,23.1761786 L23.769883,23.1761786 C24.0238802,23.1380624 24.0238802,22.9095315 23.769883,22.8714153 L18.5264895,22.8714153 C18.0060117,22.8714153 17.5234836,22.2620551 17.3204191,21.8431096 L23.0716405,21.8431096 C23.3635874,21.8049934 23.3635874,21.5383463 23.0716405,21.5256964 L17.2187203,21.5256964 C16.7616586,21.5256964 16.3174132,21.0305184 16,20.5098742 L16,20.5098742 Z M26.5122534,15.9648896 C26.8170167,16.2187203 27.1598962,16.4599011 27.5280756,16.5997161 C27.8453224,15.9901895 28.2770843,15.4697117 28.7722622,15 C27.9470211,15.1141822 27.1725461,15.4315954 26.5122534,15.9648896 L26.5122534,15.9648896 Z M25.0650022,18.9737406 L26.8932491,18.9737406 C26.9313653,18.2119156 27.0963137,17.5517893 27.401077,16.8661967 C26.9821315,16.688432 26.639252,16.4599011 26.2965389,16.1679542 C25.5347139,16.9297792 25.1156019,17.9073187 25.0650022,18.9737406 L25.0650022,18.9737406 Z M29.0387428,17.247026 L29.0387428,18.9737406 L27.2104959,18.9737406 C27.2233123,18.2883145 27.3756107,17.6025554 27.6675576,16.9678954 C28.0993195,17.1328438 28.5691976,17.2343761 29.0387428,17.247026 L29.0387428,17.247026 Z M31.8573457,15.9648896 C31.5525824,16.2187203 31.2098693,16.4599011 30.8543398,16.5997161 C30.5242767,15.9775395 30.1179811,15.4823616 29.6101532,15 C30.4355608,15.1141822 31.2098693,15.4315954 31.8573457,15.9648896 L31.8573457,15.9648896 Z M33.3174132,18.9737406 L31.4765164,18.9737406 C31.4510501,18.224732 31.2861017,17.5391394 30.9939883,16.8661967 C31.387634,16.688432 31.7556469,16.4472512 32.0858765,16.1679542 C32.8730014,16.9550791 33.2794635,17.9326186 33.3174132,18.9737406 L33.3174132,18.9737406 Z M29.3435061,17.247026 L29.3435061,18.9737406 L31.1717531,18.9737406 C31.1717531,18.2754981 30.9939883,17.6152054 30.7020414,16.9678954 C30.2702795,17.1328438 29.8005679,17.2343761 29.3435061,17.247026 L29.3435061,17.247026 Z M26.5122534,22.2875214 C26.8170167,22.0463406 27.1725461,21.7923435 27.5280756,21.652695 C27.8579723,22.2748715 28.2644343,22.7825329 28.7722622,23.2397611 C27.9470211,23.1380624 27.1598962,22.8206491 26.5122534,22.2875214 L26.5122534,22.2875214 Z M25.0650022,19.2785039 L26.8932491,19.2785039 C26.9313653,20.040329 27.0963137,20.7004553 27.401077,21.3986978 C26.9821315,21.576629 26.639252,21.8049934 26.2965389,22.0842904 C25.5475302,21.3352817 25.1156019,20.3449258 25.0650022,19.2785039 L25.0650022,19.2785039 Z M29.0387428,21.0052186 L29.0387428,19.2785039 L27.2104959,19.2785039 C27.2233123,19.9640965 27.3756107,20.6625055 27.6675576,21.2718657 C28.0993195,21.1194008 28.5691976,21.0178685 29.0387428,21.0052186 L29.0387428,21.0052186 Z M31.8573457,22.2875214 C31.5652323,22.0335243 31.2098693,21.8049934 30.8543398,21.652695 C30.5242767,22.2748715 30.1179811,22.7825329 29.6101532,23.2397611 C30.4355608,23.1380624 31.2098693,22.8206491 31.8573457,22.2875214 L31.8573457,22.2875214 Z M33.3174132,19.2785039 L31.4765164,19.2785039 C31.4510501,20.040329 31.2987517,20.7132717 30.9939883,21.3986978 C31.387634,21.576629 31.7431635,21.8049934 32.0858765,22.0842904 C32.8348852,21.3352817 33.2794635,20.319626 33.3174132,19.2785039 L33.3174132,19.2785039 Z M29.3435061,21.0052186 L29.3435061,19.2785039 L31.1717531,19.2785039 C31.1717531,19.9640965 30.9939883,20.6496891 30.7020414,21.2718657 C30.2830959,21.1194008 29.787918,21.0178685 29.3435061,21.0052186 L29.3435061,21.0052186 Z M29.0387428,15.1775983 C28.5437313,15.5838939 28.0993195,16.1300044 27.8200225,16.7138983 C28.2008518,16.8408969 28.6199638,16.9424291 29.0387428,16.9424291 L29.0387428,15.1775983 L29.0387428,15.1775983 Z M29.3435061,15.1775983 C29.8260342,15.5838939 30.2702795,16.117188 30.5623929,16.7138983 C30.1687472,16.8535468 29.7498017,16.9424291 29.3435061,16.9424291 L29.3435061,15.1775983 L29.3435061,15.1775983 Z M29.0387428,23.0746463 C28.5437313,22.6810006 28.0993195,22.135223 27.8200225,21.5383463 C28.2008518,21.3986978 28.6199638,21.3226318 29.0387428,21.3226318 L29.0387428,23.0746463 L29.0387428,23.0746463 Z M29.3435061,23.0872962 C29.8260342,22.6810006 30.2702795,22.135223 30.5623929,21.5383463 C30.1687472,21.4115142 29.7498017,21.3226318 29.3435061,21.3226318 L29.3435061,23.0872962 L29.3435061,23.0872962 Z" id="Fill-2" fill="#0A4279"></path>
                </g>
                <path d="M124.298544,55.7712 L124.298544,53.7488 L119.716144,53.7488 L119.716144,48.7312 L117.488944,48.7312 L117.488944,53.7488 L112.880944,53.7488 L112.880944,55.7712 L117.488944,55.7712 L117.488944,60.968 L119.716144,60.968 L119.716144,55.7712 L124.298544,55.7712 Z" id="+" fill="#B2BAC3" sketch:type="MSShapeGroup"></path>
                <rect id="Rectangle-145" fill="#4A90E2" sketch:type="MSShapeGroup" x="136.217949" y="33.6" width="59.2948718" height="40" rx="2.24"></rect>
                <path d="M146.681385,50.9721178 C146.62,50.8176012 146.619041,50.6852983 146.678508,50.5752052 C146.737975,50.4651122 146.869376,50.4100664 147.072716,50.4100664 L148.494167,50.4100664 C148.590082,50.4100664 148.668731,50.4400036 148.730116,50.4998788 C148.791502,50.559754 148.83754,50.634114 148.868233,50.722961 L150.496859,55.3874077 L152.090956,50.722961 C152.133158,50.5993477 152.18687,50.5162963 152.252092,50.4738042 C152.317314,50.4313122 152.407472,50.4100664 152.52257,50.4100664 L154.00157,50.4100664 C154.108994,50.4100664 154.193398,50.4245522 154.254784,50.453524 C154.316169,50.4824959 154.35933,50.5211245 154.384268,50.5694109 C154.409206,50.6176973 154.417838,50.6717773 154.410165,50.7316525 C154.402492,50.7915277 154.387146,50.8504363 154.364126,50.90838 C154.218336,51.271494 154.059119,51.6684026 153.886473,52.0991177 C153.713826,52.5298327 153.534468,52.9779241 153.348393,53.4434054 C153.162318,53.9088867 152.973369,54.3820867 152.781539,54.8630196 C152.589709,55.3439526 152.402678,55.8161869 152.22044,56.2797367 C152.038202,56.7432865 151.86268,57.1884808 151.69387,57.6153329 C151.52506,58.042185 151.370639,58.434265 151.230604,58.7915847 C151.090568,59.1489044 150.913837,59.5427056 150.913837,59.5427056 C150.850574,59.6862949 150.688464,59.8585917 150.55339,59.9267163 L149.266656,60.5756793 C148.844093,60.7887985 148.607638,60.5926658 148.739727,60.1334019 L149.426454,57.7457056 L146.681385,50.9721178 Z M160.707535,56.8939371 C160.369914,57.2068332 159.990097,57.451159 159.568072,57.6269216 C159.146047,57.8026842 158.69909,57.8905642 158.227189,57.8905642 C157.701576,57.8905642 157.204744,57.7939928 156.73668,57.6008471 C156.268615,57.4077013 155.858106,57.1401984 155.505139,56.7983304 C155.152173,56.4564625 154.872106,56.0537596 154.664929,55.5902098 C154.457753,55.1266599 154.354167,54.6225571 154.354167,54.077886 C154.354167,53.7379495 154.39541,53.4086409 154.477896,53.0899504 C154.560383,52.7712599 154.677398,52.4728542 154.828943,52.1947243 C154.980488,51.9165944 155.164642,51.6606801 155.38141,51.4269738 C155.598177,51.1932674 155.840838,50.9933645 156.1094,50.8272592 C156.377961,50.6611538 156.669538,50.5317481 156.984139,50.4390382 C157.29874,50.3463282 157.6306,50.2999739 157.97973,50.2999739 C158.298167,50.2999739 158.607008,50.3424653 158.906263,50.4274495 C159.205517,50.5124336 159.486543,50.6321822 159.74935,50.7866988 C160.012157,50.9412154 160.252899,51.1266325 160.471585,51.3429558 C160.690271,51.559279 160.878261,51.795879 161.035562,52.0527629 C161.192862,52.3096468 161.314672,52.5839096 161.400996,52.8755597 C161.487319,53.1672098 161.53048,53.467547 161.53048,53.7765802 C161.53048,53.9774518 161.527603,54.1416232 161.521848,54.2690994 C161.516093,54.3965756 161.48636,54.4979756 161.432647,54.5733024 C161.378935,54.6486293 161.289735,54.7007779 161.165046,54.7297497 C161.040357,54.7587216 160.857162,54.7732073 160.615457,54.7732073 L156.471956,54.7732073 C156.510322,55.0204339 156.588012,55.2270967 156.705028,55.3932021 C156.822044,55.5593074 156.957282,55.6916103 157.110746,55.7901146 C157.26421,55.888619 157.427262,55.9591161 157.599909,56.0016082 C157.772556,56.0441002 157.935609,56.065346 158.089072,56.065346 C158.22719,56.065346 158.369142,56.0508602 158.514932,56.0218884 C158.660723,55.9929165 158.801715,55.9542879 158.937915,55.9060015 C159.074114,55.8577151 159.198801,55.8017036 159.311981,55.7379655 C159.42516,55.6742274 159.516278,55.6075931 159.585337,55.5380607 C159.646722,55.4878428 159.699474,55.4501799 159.743595,55.425071 C159.787716,55.399962 159.834714,55.3874077 159.884589,55.3874077 C159.934465,55.3874077 159.985299,55.4047906 160.037093,55.4395568 C160.088887,55.4743231 160.147394,55.5245402 160.212617,55.5902098 L160.822632,56.285531 C160.864834,56.3357489 160.89169,56.3811375 160.9032,56.4216981 C160.91471,56.4622587 160.920465,56.5037844 160.920465,56.5462765 C160.920465,56.6235348 160.899364,56.6901691 160.857161,56.7461813 C160.814959,56.8021936 160.765084,56.851445 160.707535,56.8939371 L160.707535,56.8939371 Z M162.982099,50.3868891 L164.35602,50.3868891 C164.786848,50.3868891 164.726534,50.8272592 164.726534,50.8272592 L164.726534,50.8794074 C164.726534,50.8794074 165.217676,50.2420305 166.538604,50.2999739 C167.063906,50.3230167 167.54858,50.3975111 167.991707,50.5925883 C168.434833,50.7876655 168.816569,51.0561341 169.136924,51.3980021 C169.45728,51.73987 169.707614,52.1416072 169.887934,52.6032256 C170.068254,53.0648439 170.158412,53.5641182 170.158412,54.1010634 C170.158412,54.6341457 170.068254,55.1324543 169.887934,55.5960041 C169.707614,56.0595539 169.45728,56.4622568 169.136924,56.8041248 C168.816569,57.1459928 168.434833,57.4154271 167.991707,57.6124357 C167.54858,57.8094444 167.064217,57.9079473 166.538604,57.9079473 C164.930457,57.9079473 164.726534,57.4965489 164.726534,57.4965489 L164.725904,59.6304869 C164.725859,59.7831986 164.60732,59.9605789 164.472983,60.0213218 L163.032918,60.6724723 C162.750586,60.8001337 162.52171,60.6542573 162.52171,60.3323476 L162.52171,50.8156705 C162.52171,50.8156705 162.489097,50.3868891 162.982099,50.3868891 Z M170.186564,59.0727534 C170.186564,58.915868 170.301834,58.7531623 170.463528,58.7033296 L170.504825,58.6906024 C170.848235,58.5847669 171.126623,58.2091385 171.126623,57.8483426 L171.126623,50.8678196 C171.126623,50.7171659 171.17458,50.6041773 171.270495,50.5288505 C171.36641,50.4535236 171.471914,50.4158608 171.587012,50.4158608 L172.893366,50.4158608 C173.031483,50.4158608 173.138906,50.4602836 173.215638,50.5491307 C173.29237,50.6379777 173.330735,50.7442063 173.330735,50.8678196 L173.330735,58.275071 C173.330735,59.1379567 172.663937,60.0758571 171.850717,60.3665993 L170.71993,60.770878 C170.42536,60.8761925 170.186564,60.7123099 170.186564,60.3906683 L170.186564,59.0727534 Z M179.484077,57.6269216 C179.062052,57.8026842 178.615095,57.8905642 178.143194,57.8905642 C177.617581,57.8905642 177.120749,57.7939928 176.652685,57.6008471 C176.18462,57.4077013 175.774111,57.1401984 175.421144,56.7983304 C175.068178,56.4564625 174.788111,56.0537596 174.580935,55.5902098 C174.373758,55.1266599 174.270172,54.6225571 174.270172,54.077886 C174.270172,53.7379495 174.311415,53.4086409 174.393902,53.0899504 C174.476388,52.7712599 174.593403,52.4728542 174.744948,52.1947243 C174.896494,51.9165944 175.080647,51.6606801 175.297415,51.4269738 C175.514182,51.1932674 175.756843,50.9933645 176.025405,50.8272592 C176.293966,50.6611538 176.585543,50.5317481 176.900144,50.4390382 C177.214745,50.3463282 177.546605,50.2999739 177.895735,50.2999739 C178.214172,50.2999739 178.523014,50.3424653 178.822268,50.4274495 C179.121522,50.5124336 179.402548,50.6321822 179.665355,50.7866988 C179.928162,50.9412154 180.168905,51.1266325 180.38759,51.3429558 C180.606276,51.559279 180.794266,51.795879 180.951567,52.0527629 C181.108867,52.3096468 181.230677,52.5839096 181.317001,52.8755597 C181.403324,53.1672098 181.446485,53.467547 181.446485,53.7765802 C181.446485,53.9774518 181.443608,54.1416232 181.437853,54.2690994 C181.432098,54.3965756 181.402365,54.4979756 181.348652,54.5733024 C181.29494,54.6486293 181.205741,54.7007779 181.081051,54.7297497 C180.956362,54.7587216 180.773167,54.7732073 180.531462,54.7732073 L176.387961,54.7732073 C176.426327,55.0204339 176.504017,55.2270967 176.621033,55.3932021 C176.738049,55.5593074 176.873287,55.6916103 177.026751,55.7901146 C177.180215,55.888619 177.343267,55.9591161 177.515914,56.0016082 C177.688561,56.0441002 177.851614,56.065346 178.005077,56.065346 C178.143195,56.065346 178.285147,56.0508602 178.430937,56.0218884 C178.576728,55.9929165 178.717721,55.9542879 178.85392,55.9060015 C178.990119,55.8577151 179.114806,55.8017036 179.227986,55.7379655 C179.341165,55.6742274 179.432283,55.6075931 179.501342,55.5380607 C179.562727,55.4878428 179.615479,55.4501799 179.6596,55.425071 C179.703721,55.399962 179.750719,55.3874077 179.800594,55.3874077 C179.85047,55.3874077 179.901304,55.4047906 179.953098,55.4395568 C180.004892,55.4743231 180.063399,55.5245402 180.128622,55.5902098 L180.738637,56.285531 C180.780839,56.3357489 180.807695,56.3811375 180.819205,56.4216981 C180.830715,56.4622587 180.83647,56.5037844 180.83647,56.5462765 C180.83647,56.6235348 180.815369,56.6901691 180.773166,56.7461813 C180.730964,56.8021936 180.681089,56.851445 180.62354,56.8939371 C180.285919,57.2068332 179.906102,57.451159 179.484077,57.6269216 Z M176.419213,53.2840609 L179.57862,53.2840609 C179.57862,53.2840609 179.291402,51.9803336 177.998917,51.9803336 C176.706432,51.9803336 176.419213,53.2840609 176.419213,53.2840609 Z M156.428777,53.2840609 L159.588184,53.2840609 C159.588184,53.2840609 159.300966,51.9803336 158.008481,51.9803336 C156.715996,51.9803336 156.428777,53.2840609 156.428777,53.2840609 Z M182.306402,49.2685807 C182.306402,49.1488304 182.345726,49.0590189 182.424377,48.9991437 C182.503027,48.9392686 182.615245,48.8822914 182.761036,48.8282106 L184.06739,48.3704574 C184.086573,48.3665945 184.104796,48.3646631 184.122061,48.3646631 L184.170977,48.3646631 C184.312931,48.3646631 184.407886,48.4061888 184.455843,48.4892415 C184.5038,48.5722942 184.527779,48.6814199 184.527779,48.8166219 L184.522024,50.6418402 L185.483086,50.6418402 C185.605857,50.6418402 185.705607,50.6785373 185.782339,50.7519327 C185.859071,50.8253281 185.897436,50.9354195 185.897436,51.0822103 L185.897436,52.2005187 C185.897436,52.3627611 185.859071,52.481544 185.782339,52.5568708 C185.705607,52.6321977 185.605857,52.6698605 185.483086,52.6698605 L184.522024,52.6698605 L184.527779,57.3285129 C184.527779,57.4753037 184.485577,57.5863608 184.401172,57.6616877 C184.316767,57.7370145 184.199752,57.7746774 184.050125,57.7746774 L182.749526,57.7746774 C182.454109,57.7746774 182.306402,57.6259574 182.306402,57.3285129 L182.306402,49.2685807 Z M172.254539,49.5177375 C172.889045,49.5177375 173.403414,48.9988943 173.403414,48.3588687 C173.403414,47.7188432 172.889045,47.2 172.254539,47.2 C171.620032,47.2 171.105663,47.7188432 171.105663,48.3588687 C171.105663,48.9988943 171.620032,49.5177375 172.254539,49.5177375 Z M166.423999,56.0074007 C167.455072,56.0074007 168.290922,55.1642805 168.290922,54.124239 C168.290922,53.0841975 167.455072,52.2410773 166.423999,52.2410773 C165.392926,52.2410773 164.557076,53.0841975 164.557076,54.124239 C164.557076,55.1642805 165.392926,56.0074007 166.423999,56.0074007 Z" id="yepjet" fill="#FFFFFF" sketch:type="MSShapeGroup"></path>
            </g>
        </g>
    </g>
</svg>