<?xml version="1.0" encoding="UTF-8" standalone="no"?>
<svg width="115px" height="86px" viewBox="0 0 115 86" version="1.1" xmlns="http://www.w3.org/2000/svg" xmlns:xlink="http://www.w3.org/1999/xlink" xmlns:sketch="http://www.bohemiancoding.com/sketch/ns">
    <!-- Generator: Sketch 3.4.3 (16618) - http://www.bohemiancoding.com/sketch -->
    <title>Illo</title>
    <desc>Created with Sketch.</desc>
    <defs></defs>
    <g id="Website" stroke="none" stroke-width="1" fill="none" fill-rule="evenodd" sketch:type="MSPage">
        <g id="home" sketch:type="MSArtboardGroup" transform="translate(-929.000000, -1774.000000)">
            <g id="Illo" sketch:type="MSLayerGroup" transform="translate(936.000000, 1777.000000)">
                <circle id="Oval-5" fill="#50E3C2" sketch:type="MSShapeGroup" cx="76" cy="29" r="18"></circle>
                <circle id="Oval-5" stroke="#50E3C2" stroke-width="6" opacity="0.3" sketch:type="MSShapeGroup" cx="76" cy="29" r="29"></circle>
                <path d="M85.8120484,25.1818763 L83.6943817,23.1778806 C83.4437491,22.9407065 83.0373513,22.9407065 82.7867188,23.1778806 L73.9652029,31.5257862 L70.2132126,27.9753564 C69.9626715,27.7381823 69.556228,27.7381823 69.3056411,27.9753564 L67.1879744,29.9793522 C66.9373419,30.216483 66.9373419,30.6010581 67.1879744,30.8382322 L73.51144,36.8220978 C73.6367563,36.9407281 73.8010253,37 73.9652486,37 C74.1295176,37 74.2937866,36.9407281 74.4190572,36.8220978 L85.8120484,26.0407131 C85.932427,25.9268419 86,25.7723456 86,25.6113164 C86.0000457,25.4502006 85.932427,25.2957909 85.8120484,25.1818763 L85.8120484,25.1818763 Z" id="Shape" fill="#FFFFFF" sketch:type="MSShapeGroup"></path>
                <circle id="Oval-5" stroke="#F5F7F9" stroke-width="7" fill="#765FA1" sketch:type="MSShapeGroup" transform="translate(29.500000, 46.500000) scale(-1, 1) translate(-29.500000, -46.500000) " cx="29.5" cy="46.5" r="29.5"></circle>
                <text id="NDC" sketch:type="MSTextLayer" font-family="Arial Rounded MT Bold" font-size="15" font-weight="normal" sketch:alignment="middle" fill="#FFFFFF">
                    <tspan x="13.1982422" y="52">NDC</tspan>
                </text>
            </g>
        </g>
    </g>
</svg>