<?xml version="1.0" encoding="UTF-8" standalone="no"?>
<svg width="200px" height="108px" viewBox="0 0 200 108" version="1.1" xmlns="http://www.w3.org/2000/svg" xmlns:xlink="http://www.w3.org/1999/xlink" xmlns:sketch="http://www.bohemiancoding.com/sketch/ns">
    <!-- Generator: Sketch 3.4.3 (16618) - http://www.bohemiancoding.com/sketch -->
    <title>Icon</title>
    <desc>Created with Sketch.</desc>
    <defs></defs>
    <g id="Website" stroke="none" stroke-width="1" fill="none" fill-rule="evenodd" sketch:type="MSPage">
        <g id="Icon" sketch:type="MSArtboardGroup">
            <g id="Illo" sketch:type="MSLayerGroup" transform="translate(35.000000, 4.000000)">
                <ellipse id="Oval-5" fill="#50E3C2" sketch:type="MSShapeGroup" cx="94.8190476" cy="36.25" rx="22.4571429" ry="22.5"></ellipse>
                <ellipse id="Oval-5" stroke="#50E3C2" stroke-width="6" opacity="0.3" sketch:type="MSShapeGroup" cx="94.8190476" cy="36.25" rx="36.1809524" ry="36.25"></ellipse>
                <path d="M107.060746,31.4773454 L104.418705,28.9723507 C104.106011,28.6758831 103.598981,28.6758831 103.286287,28.9723507 L92.280396,39.4072328 L87.5993414,34.9691955 C87.2867616,34.6727279 86.7796749,34.6727279 86.467038,34.9691955 L83.8249966,37.4741902 C83.5123027,37.7706038 83.5123027,38.2513226 83.8249966,38.5477903 L91.7142728,46.0276222 C91.8706198,46.1759101 92.0755649,46.25 92.280453,46.25 C92.4853982,46.25 92.6903433,46.1759101 92.8466333,46.0276222 L107.060746,32.5508914 C107.210933,32.4085523 107.295238,32.2154319 107.295238,32.0141454 C107.295295,31.8127508 107.210933,31.6197386 107.060746,31.4773454 L107.060746,31.4773454 Z" id="Shape" fill="#FFFFFF" sketch:type="MSShapeGroup"></path>
                <ellipse id="Oval-5" stroke="#F5F7F9" stroke-width="7" fill="#765FA1" sketch:type="MSShapeGroup" transform="translate(36.804762, 58.125000) scale(-1, 1) translate(-36.804762, -58.125000) " cx="36.8047619" cy="58.125" rx="36.8047619" ry="36.875"></ellipse>
                <path d="M21.464774,52.979126 L26.6824777,60.8892822 L26.6824777,52.9058838 C26.6824777,52.3870824 26.7936536,51.9979871 27.0160086,51.7385864 C27.2383637,51.4791857 27.5383863,51.3494873 27.9160854,51.3494873 C28.3059683,51.3494873 28.6136056,51.4791857 28.8390067,51.7385864 C29.0644077,51.9979871 29.1771066,52.3870824 29.1771066,52.9058838 L29.1771066,63.4619141 C29.1771066,64.6398985 28.6897603,65.2288818 27.715053,65.2288818 C27.4713762,65.2288818 27.2520704,65.193787 27.0571289,65.1235962 C26.8621875,65.0534054 26.6794326,64.9420174 26.5088588,64.7894287 C26.338285,64.6368401 26.1798975,64.458314 26.0336914,64.2538452 C25.8874853,64.0493764 25.7412814,63.8403331 25.5950753,63.626709 L20.5053013,55.8081055 L20.5053013,63.6724854 C20.5053013,64.1851832 20.3865107,64.5727526 20.1489258,64.8352051 C19.9113409,65.0976576 19.6067494,65.2288818 19.2351423,65.2288818 C18.8513513,65.2288818 18.543714,65.0961317 18.312221,64.8306274 C18.080728,64.5651232 17.9649833,64.1790797 17.9649833,63.6724854 L17.9649833,53.3178711 C17.9649833,52.8784158 18.0137179,52.5335706 18.1111886,52.2833252 C18.2269351,52.0086656 18.4188277,51.7843637 18.6868722,51.6104126 C18.9549167,51.4364615 19.2442786,51.3494873 19.5549665,51.3494873 C19.7986433,51.3494873 20.0072885,51.3891598 20.1809082,51.4685059 C20.3545279,51.547852 20.5068237,51.6546624 20.6377999,51.7889404 C20.7687762,51.9232184 20.9027965,52.0971669 21.0398647,52.310791 C21.1769329,52.5244151 21.3185679,52.7471912 21.464774,52.979126 L21.464774,52.979126 Z M33.8282645,51.5783691 L37.3646066,51.5783691 C38.2844866,51.5783691 39.0733784,51.6638175 39.7313058,51.8347168 C40.3892332,52.0056161 40.9862324,52.3260475 41.5223214,52.7960205 C42.9173712,53.9923156 43.6148856,55.811145 43.6148856,58.2525635 C43.6148856,59.0582316 43.5448296,59.7936978 43.4047154,60.4589844 C43.2646012,61.1242709 43.0483413,61.7239353 42.7559291,62.2579956 C42.463517,62.7920559 42.0888695,63.2696512 41.6319754,63.6907959 C41.2725521,64.0142838 40.8796292,64.2736807 40.4531948,64.4689941 C40.0267603,64.6643076 39.5683502,64.8016353 39.0779506,64.8809814 C38.587551,64.9603275 38.0347175,65 37.4194336,65 L33.8830915,65 C33.389646,65 33.0180444,64.9252327 32.7682757,64.7756958 C32.5185069,64.6261589 32.3555505,64.4155897 32.2794015,64.1439819 C32.2032525,63.8723741 32.1651786,63.5198996 32.1651786,63.0865479 L32.1651786,53.2446289 C32.1651786,52.6586885 32.2961529,52.2344984 32.5581055,51.9720459 C32.820058,51.7095934 33.2434402,51.5783691 33.8282645,51.5783691 L33.8282645,51.5783691 Z M34.8791155,53.7298584 L34.8791155,62.8393555 L36.9351283,62.8393555 C37.3859305,62.8393555 37.7392565,62.8271486 37.9951172,62.8027344 C38.2509778,62.7783202 38.5159724,62.7172856 38.7901088,62.6196289 C39.0642452,62.5219722 39.3018266,62.3846444 39.5028599,62.2076416 C40.4105561,61.4385948 40.8643973,60.1141451 40.8643973,58.2342529 C40.8643973,56.9097834 40.6648899,55.917972 40.2658691,55.2587891 C39.8668484,54.5996061 39.3749332,54.1799936 38.7901088,53.999939 C38.2052845,53.8198844 37.4986323,53.7298584 36.6701311,53.7298584 L34.8791155,53.7298584 Z M57.4130162,60.7611084 C57.4130162,61.1883566 57.3079321,61.6506933 57.0977609,62.1481323 C56.8875896,62.6455713 56.5571079,63.1338477 56.1063058,63.6129761 C55.6555037,64.0921044 55.0798259,64.4811997 54.379255,64.7802734 C53.6786842,65.0793472 52.8623791,65.2288818 51.9303153,65.2288818 C51.2236525,65.2288818 50.5809646,65.1617438 50.0022321,65.0274658 C49.4234997,64.8931878 48.8980795,64.6841445 48.4259556,64.4003296 C47.9538318,64.1165147 47.519789,63.7426781 47.1238142,63.2788086 C46.7704828,62.8576639 46.4689373,62.386172 46.2191685,61.8643188 C45.9693998,61.3424657 45.7820761,60.7855254 45.6571917,60.1934814 C45.5323073,59.6014375 45.4698661,58.9727816 45.4698661,58.3074951 C45.4698661,57.2271674 45.6267307,56.2597699 45.9404646,55.4052734 C46.2541985,54.550777 46.7034708,53.8198883 47.2882952,53.2125854 C47.8731196,52.6052826 48.5584503,52.1429459 49.344308,51.8255615 C50.1301658,51.5081771 50.9677922,51.3494873 51.8572126,51.3494873 C52.9415744,51.3494873 53.9071293,51.5661599 54.7539062,51.9995117 C55.6006832,52.4328635 56.249463,52.9684416 56.7002651,53.6062622 C57.1510672,54.2440828 57.3764648,54.8467989 57.3764648,55.4144287 C57.3764648,55.7257096 57.2668119,56.000365 57.0475028,56.2384033 C56.8281937,56.4764416 56.5631991,56.595459 56.2525112,56.595459 C55.9052717,56.595459 55.644846,56.5130623 55.4712263,56.3482666 C55.2976066,56.1834709 55.104191,55.8996602 54.8909738,55.4968262 C54.5376424,54.8315396 54.1218751,54.3341081 53.6436593,54.0045166 C53.1654436,53.6749251 52.5760591,53.5101318 51.8754883,53.5101318 C50.7606669,53.5101318 49.8727828,53.9343219 49.2118094,54.7827148 C48.5508361,55.6311078 48.2203544,56.83654 48.2203544,58.3990479 C48.2203544,59.4427542 48.3665582,60.3109707 48.6589704,61.0037231 C48.9513826,61.6964756 49.365627,62.2137434 49.901716,62.555542 C50.4378049,62.8973406 51.0652633,63.0682373 51.7841099,63.0682373 C52.5638757,63.0682373 53.2233162,62.8744526 53.7624512,62.4868774 C54.3015861,62.0993023 54.7082157,61.5301551 54.9823521,60.7794189 C55.0980986,60.4254133 55.2412566,60.137025 55.4118304,59.9142456 C55.5824041,59.6914662 55.8565364,59.5800781 56.2342355,59.5800781 C56.5571073,59.5800781 56.8342855,59.692992 57.0657785,59.9188232 C57.2972714,60.1446544 57.4130162,60.4254134 57.4130162,60.7611084 L57.4130162,60.7611084 Z" id="NDC" fill="#FFFFFF" sketch:type="MSShapeGroup"></path>
            </g>
        </g>
    </g>
</svg>