<?xml version="1.0" encoding="UTF-8" standalone="no"?>
<svg width="410px" height="141px" viewBox="0 0 410 141" version="1.1" xmlns="http://www.w3.org/2000/svg" xmlns:xlink="http://www.w3.org/1999/xlink" xmlns:sketch="http://www.bohemiancoding.com/sketch/ns">
    <!-- Generator: Sketch 3.4.3 (16618) - http://www.bohemiancoding.com/sketch -->
    <title>yepjet</title>
    <desc>Created with Sketch.</desc>
    <defs></defs>
    <g id="Brand" stroke="none" stroke-width="1" fill="none" fill-rule="evenodd" sketch:type="MSPage">
        <g id="final" sketch:type="MSArtboardGroup" transform="translate(-195.000000, -230.000000)" fill="#FFFFFF">
            <path d="M195.488392,269.107986 C194.847377,267.506012 194.837362,266.134343 195.458345,264.992937 C196.079328,263.85153 197.45148,263.280836 199.574842,263.280836 L214.418271,263.280836 C215.419857,263.280836 216.241145,263.591214 216.88216,264.211978 C217.523175,264.832743 218.003929,265.603681 218.324437,266.524816 L235.33128,314.884154 L251.977555,266.524816 C252.418252,265.243237 252.979132,264.382189 253.660211,263.941647 C254.341289,263.501104 255.282766,263.280836 256.484669,263.280836 L271.929046,263.280836 C273.050822,263.280836 273.932205,263.431019 274.57322,263.731389 C275.214235,264.031759 275.664941,264.432246 275.925354,264.932863 C276.185766,265.43348 276.275908,265.994162 276.195781,266.614927 C276.115654,267.235692 275.955402,267.846435 275.715022,268.447175 C274.192611,272.211813 272.530004,276.326821 270.727149,280.792323 C268.924294,285.257824 267.051357,289.903478 265.10828,294.729424 C263.165204,299.555369 261.192109,304.46134 259.188937,309.447483 C257.185765,314.433626 255.232702,319.329584 253.329689,324.135505 C251.426676,328.941426 249.593801,333.557043 247.83101,337.982496 C246.068219,342.407948 244.455689,346.472895 242.993374,350.177459 C241.531059,353.882023 239.61613,358.609624 239.61613,358.609624 C238.993851,360.150703 237.266533,361.974627 235.771971,362.676935 L222.635306,368.849971 C218.139675,370.962508 215.617351,368.801534 217.001369,364.023883 L224.153637,339.334154 L195.488392,269.107986 Z M341.955741,330.503319 C338.430159,333.747315 334.463938,336.280398 330.05696,338.102643 C325.649982,339.924888 320.982662,340.835997 316.054859,340.835997 C310.566169,340.835997 305.378032,339.834778 300.490292,337.832311 C295.602553,335.829844 291.31583,333.056469 287.629994,329.512102 C283.944158,325.967736 281.019571,321.792655 278.856145,316.986734 C276.69272,312.180813 275.611023,306.954452 275.611023,301.307495 C275.611023,297.783153 276.041698,294.368998 276.903062,291.064927 C277.764426,287.760857 278.986343,284.667091 280.568848,281.783539 C282.151354,278.899986 284.07437,276.246757 286.337954,273.823772 C288.601538,271.400787 291.135513,269.328265 293.939953,267.606143 C296.744394,265.884021 299.789169,264.542389 303.074371,263.581204 C306.359573,262.62002 309.825008,262.139435 313.470781,262.139435 C316.796046,262.139435 320.021104,262.579972 323.146052,263.461057 C326.271,264.342143 329.205603,265.583653 331.949948,267.185627 C334.694294,268.787601 337.208236,270.70994 339.491852,272.952703 C341.775468,275.195466 343.738547,277.648452 345.381148,280.311733 C347.023749,282.975014 348.295744,285.818475 349.197171,288.8422 C350.098598,291.865925 350.549305,294.979715 350.549305,298.183662 C350.549305,300.266228 350.519258,301.968299 350.459163,303.289928 C350.399068,304.611556 350.088581,305.662835 349.527693,306.443797 C348.966805,307.224759 348.035344,307.765417 346.733282,308.065788 C345.431221,308.366158 343.51822,308.51634 340.994224,308.51634 L297.725929,308.51634 C298.126563,311.079498 298.937836,313.222106 300.159771,314.944227 C301.381705,316.666349 302.79392,318.038018 304.396458,319.059277 C305.998995,320.080535 307.701666,320.811424 309.50452,321.251967 C311.307375,321.69251 313.010046,321.912778 314.612583,321.912778 C316.054867,321.912778 317.537192,321.762595 319.059602,321.462225 C320.582013,321.161855 322.054322,320.761368 323.476574,320.260751 C324.898826,319.760134 326.200868,319.179427 327.382739,318.518613 C328.564611,317.857799 329.516103,317.166958 330.237245,316.44607 C330.87826,315.925429 331.429124,315.534954 331.889853,315.274633 C332.350583,315.014312 332.841353,314.884154 333.362177,314.884154 C333.883002,314.884154 334.413834,315.064373 334.954691,315.424817 C335.495547,315.785261 336.106506,316.305895 336.787584,316.986734 L343.157638,324.195579 C343.598336,324.71622 343.878776,325.186793 343.998966,325.607311 C344.119157,326.027829 344.179251,326.458353 344.179251,326.898896 C344.179251,327.699883 343.958905,328.390724 343.518208,328.971439 C343.07751,329.552154 342.556693,330.062776 341.955741,330.503319 L341.955741,330.503319 Z M364.707766,263.040541 L376.999999,263.040541 C381.916507,263.040541 381.923942,267.606143 381.923942,267.606143 L381.923942,272.146797 C381.923942,272.146797 390.499999,262.139435 402.846386,262.139435 C408.334739,262.139435 413.393009,263.150666 418.020336,265.173158 C422.647663,267.19565 426.633915,269.979037 429.979212,273.523404 C433.324509,277.06777 435.938609,281.232839 437.821591,286.018736 C439.704572,290.804632 440.646049,295.980931 440.646049,301.54779 C440.646049,307.074599 439.704572,312.240886 437.821591,317.046807 C435.938609,321.852728 433.324509,326.027809 429.979212,329.572176 C426.633915,333.116543 422.647663,335.909942 418.020336,337.952459 C413.393009,339.994975 408.335077,341.016217 402.846386,341.016218 C389.999999,341.016221 381.923942,332.750985 381.923942,332.750985 L381.917275,358.74833 C381.916851,360.401494 380.701453,362.311897 379.194791,363.019002 L365.328291,369.526817 C362.330427,370.933772 359.900178,369.383888 359.900178,366.075562 L359.900178,267.485996 C359.900178,267.485996 359.559614,263.040541 364.707766,263.040541 Z M440.94002,353.138918 C440.94002,351.486759 442.223359,349.754741 443.805754,349.270556 L444.154317,349.163902 C447.800625,348.048195 450.756542,344.054404 450.756542,340.243781 L450.756542,268.026659 C450.756542,266.464735 451.257327,265.293309 452.258913,264.512347 C453.260499,263.731385 454.362227,263.34091 455.56413,263.34091 L469.205662,263.34091 C470.647946,263.34091 471.769705,263.80147 472.570974,264.722605 C473.372242,265.64374 473.772871,266.74508 473.772871,268.026659 L473.772871,344.609349 C473.772871,353.673123 466.849987,363.478101 458.293845,366.515178 L446.602875,370.664988 C443.475367,371.775124 440.94002,369.980083 440.94002,366.667664 L440.94002,353.138918 Z M538.028827,338.102643 C533.621849,339.924888 528.954529,340.835997 524.026726,340.835997 C518.538035,340.835997 513.349898,339.834778 508.462159,337.832311 C503.57442,335.829844 499.287697,333.056469 495.60186,329.512102 C491.916024,325.967736 488.991437,321.792655 486.828012,316.986734 C484.664586,312.180813 483.58289,306.954452 483.58289,301.307495 C483.58289,297.783153 484.013565,294.368998 484.874929,291.064927 C485.736293,287.760857 486.958209,284.667091 488.540715,281.783539 C490.123221,278.899986 492.046237,276.246757 494.309821,273.823772 C496.573405,271.400787 499.10738,269.328265 501.91182,267.606143 C504.716261,265.884021 507.761036,264.542389 511.046238,263.581204 C514.33144,262.62002 517.796875,262.139435 521.442647,262.139435 C524.767913,262.139435 527.992971,262.579972 531.117919,263.461057 C534.242867,264.342143 537.17747,265.583653 539.921815,267.185627 C542.66616,268.787601 545.180103,270.70994 547.463719,272.952703 C549.747335,275.195466 551.710414,277.648452 553.353015,280.311733 C554.995616,282.975014 556.267611,285.818475 557.169038,288.8422 C558.070465,291.865925 558.521172,294.979715 558.521172,298.183662 C558.521172,300.266228 558.491125,301.968299 558.43103,303.289928 C558.370935,304.611556 558.060448,305.662835 557.49956,306.443797 C556.938672,307.224759 556.007211,307.765417 554.705149,308.065788 C553.403087,308.366158 551.490087,308.51634 548.96609,308.51634 L505.697796,308.51634 C506.09843,311.079498 506.909703,313.222106 508.131637,314.944227 C509.353572,316.666349 510.765787,318.038018 512.368325,319.059277 C513.970862,320.080535 515.673533,320.811424 517.476387,321.251967 C519.279242,321.69251 520.981912,321.912778 522.58445,321.912778 C524.026733,321.912778 525.509058,321.762595 527.031469,321.462225 C528.553879,321.161855 530.026189,320.761368 531.448441,320.260751 C532.870693,319.760134 534.172735,319.179427 535.354606,318.518613 C536.536477,317.857799 537.48797,317.166958 538.209112,316.44607 C538.850127,315.925429 539.400991,315.534954 539.86172,315.274633 C540.32245,315.014312 540.813219,314.884154 541.334044,314.884154 C541.854869,314.884154 542.385701,315.064373 542.926558,315.424817 C543.467414,315.785261 544.078372,316.305895 544.759451,316.986734 L551.129505,324.195579 C551.570203,324.71622 551.850643,325.186793 551.970833,325.607311 C552.091023,326.027829 552.151118,326.458353 552.151118,326.898896 C552.151118,327.699883 551.930772,328.390724 551.490074,328.971439 C551.049376,329.552154 550.52856,330.062776 549.927608,330.503319 C546.402026,333.747315 542.435805,336.280398 538.028827,338.102643 Z M506.024138,293.077396 L539.016092,293.077396 C539.016092,293.077396 536.016824,279.560811 522.520115,279.560811 C509.023407,279.560811 506.024138,293.077396 506.024138,293.077396 Z M297.27503,293.077396 L330.266984,293.077396 C330.266984,293.077396 327.267715,279.560811 313.771007,279.560811 C300.274298,279.560811 297.27503,293.077396 297.27503,293.077396 Z M567.500811,251.446315 C567.500811,250.204785 567.911455,249.273652 568.732756,248.652887 C569.554056,248.032122 570.725894,247.441404 572.248305,246.880713 L585.889837,241.13489 C586.090154,241.09484 586.280452,241.074816 586.460738,241.074816 L586.971544,241.074816 C588.453891,241.074816 589.445446,241.50534 589.946239,242.366401 C590.447032,243.227462 590.697425,244.358838 590.697425,245.760565 L590.63733,265.683784 L600.673171,265.683784 C601.9552,265.683784 602.996834,266.064247 603.798103,266.825185 C604.599372,267.586122 605,268.727511 605,270.249386 L605,281.843613 C605,283.525685 604.599372,284.757184 603.798103,285.538146 C602.996834,286.319108 601.9552,286.709583 600.673171,286.709583 L590.63733,286.709583 L590.697425,335.008847 C590.697425,336.530722 590.256734,337.682123 589.375338,338.463085 C588.493942,339.244047 587.272026,339.634523 585.709552,339.634523 L572.128115,339.634523 C569.043231,339.634523 567.500811,338.092646 567.500811,335.008847 L567.500811,251.446315 Z M462.534744,254.029484 C469.160546,254.029484 474.531819,248.650301 474.531819,242.014742 C474.531819,235.379183 469.160546,230 462.534744,230 C455.908943,230 450.53767,235.379183 450.53767,242.014742 C450.53767,248.650301 455.908943,254.029484 462.534744,254.029484 Z M401,320.26411 C411.49341,320.26411 420,311.75752 420,301.26411 C420,290.7707 411.49341,282.26411 401,282.26411 C390.50659,282.26411 382,290.7707 382,301.26411 C382,311.75752 390.50659,320.26411 401,320.26411 Z" id="yepjet" sketch:type="MSShapeGroup"></path>
        </g>
    </g>
</svg>